<svg width="1975" height="329" viewBox="0 0 1975 329" fill="none" xmlns="http://www.w3.org/2000/svg">
<rect width="1975" height="329" fill="white"/>
<path d="M183.11 184.58C168.7 189.04 136.07 199.04 112.59 199.04C84.03 199.04 119.41 161.89 97.43 161.89C67.86 161.89 16.14 192.71 4.21 199.43C1.6 200.9 0 203.66 0 206.65V229.25V268.06L27.2 229.25H174.92C181.96 229.25 187.66 223.55 187.66 216.51V187.93C187.66 185.57 185.37 183.88 183.11 184.58Z" fill="#00A295"/>
<path d="M174.92 94.03H93.8298L24.9198 94.31C23.9198 88.48 18.8398 84 12.7398 84C5.91984 84 0.339844 89.58 0.339844 96.4V137.61C0.339844 137.65 0.349844 137.69 0.349844 137.74L0.339844 162.58C0.349844 165.63 3.63984 167.53 6.28984 166.02C24.8798 155.41 83.1298 123.98 121.02 123.98C150.5 123.98 105.01 162.02 134.62 162.02C152.24 162.02 174.46 155.84 183.52 151.71C186.04 150.56 187.65 148.05 187.65 145.29V106.77C187.66 99.74 181.95 94.03 174.92 94.03Z" fill="#00A295"/>
<path d="M254.07 233H287.224V164.226C287.224 150.526 288.32 142.032 291.06 135.456C294.896 126.414 303.116 120.934 313.254 120.934C321.474 120.934 329.146 124.496 333.804 130.524C338.736 136.826 340.654 144.224 340.654 156.828V233H373.808V164.226C373.808 148.608 375.178 140.662 378.74 134.36C383.398 126.14 392.44 120.934 401.756 120.934C409.154 120.934 416.278 124.222 420.936 129.702C425.594 134.908 427.786 143.95 427.786 156.828V233H460.94V152.718C460.94 135.182 457.926 122.578 451.076 112.988C441.212 98.466 424.772 90.52 405.044 90.52C385.316 90.52 370.794 97.644 360.656 112.166C351.34 98.192 337.366 90.52 320.926 90.52C304.76 90.52 292.978 95.726 284.484 106.96V95.178H254.07V233ZM518.022 178.748H625.156C626.526 171.076 627.074 167.24 627.074 162.034C627.074 122.578 594.742 89.698 555.834 89.698C515.556 89.698 483.224 123.126 483.224 164.226C483.224 205.052 515.556 237.658 555.834 237.658C585.7 237.658 613.648 217.382 622.142 189.434H585.7C578.302 201.49 568.438 207.244 555.012 207.244C538.298 207.244 522.406 195.188 518.022 178.748ZM517.2 152.17C521.584 132.99 537.202 120.112 556.108 120.112C575.288 120.112 590.084 132.442 594.742 152.17H517.2ZM678.301 178.748H785.435C786.805 171.076 787.353 167.24 787.353 162.034C787.353 122.578 755.021 89.698 716.113 89.698C675.835 89.698 643.503 123.126 643.503 164.226C643.503 205.052 675.835 237.658 716.113 237.658C745.979 237.658 773.927 217.382 782.421 189.434H745.979C738.581 201.49 728.717 207.244 715.291 207.244C698.577 207.244 682.685 195.188 678.301 178.748ZM677.479 152.17C681.863 132.99 697.481 120.112 716.387 120.112C735.567 120.112 750.363 132.442 755.021 152.17H677.479ZM810.633 233H843.787V155.732C843.787 142.032 846.527 134.908 853.651 129.154C858.583 125.318 865.433 123.126 873.653 122.852V90.52H870.913C857.761 90.52 850.911 94.63 841.047 107.508V95.178H810.633V233ZM882.183 162.856C882.183 204.23 914.789 237.658 955.067 237.658C996.167 237.658 1028.77 205.052 1028.77 163.952C1028.77 123.126 996.441 90.52 955.889 90.52C915.885 90.52 882.183 123.674 882.183 162.856ZM915.337 163.678C915.337 140.388 933.969 120.934 955.615 120.934C977.535 120.934 995.619 140.662 995.619 164.5C995.619 188.612 978.083 207.244 955.615 207.244C932.873 207.244 915.337 188.338 915.337 163.678Z" fill="#00A295"/>
<path d="M1051.99 233H1085.14V49.42H1051.99V233ZM1149.65 220.122L1124.17 279.032H1159.79L1238.98 95.178H1201.44L1168.29 183.68L1137.05 95.178H1099.24L1149.65 220.122ZM1252.94 233H1286.09V164.226C1286.09 150.526 1287.19 142.032 1289.93 135.456C1293.77 126.414 1301.99 120.934 1312.12 120.934C1320.34 120.934 1328.02 124.496 1332.67 130.524C1337.61 136.826 1339.52 144.224 1339.52 156.828V233H1372.68V164.226C1372.68 148.608 1374.05 140.662 1377.61 134.36C1382.27 126.14 1391.31 120.934 1400.63 120.934C1408.02 120.934 1415.15 124.222 1419.81 129.702C1424.46 134.908 1426.66 143.95 1426.66 156.828V233H1459.81V152.718C1459.81 135.182 1456.8 122.578 1449.95 112.988C1440.08 98.466 1423.64 90.52 1403.91 90.52C1384.19 90.52 1369.66 97.644 1359.53 112.166C1350.21 98.192 1336.24 90.52 1319.8 90.52C1303.63 90.52 1291.85 95.726 1283.35 106.96V95.178H1252.94V233ZM1490.82 279.032H1523.97V220.122C1538.22 233.274 1548.63 237.658 1566.17 237.658C1604.53 237.658 1635.21 204.778 1635.21 163.404C1635.21 144.224 1628.09 125.866 1615.21 111.892C1602.06 97.37 1586.44 90.52 1566.44 90.52C1547.53 90.52 1532.19 97.644 1521.23 111.344V95.178H1490.82V279.032ZM1522.05 163.678C1522.05 139.84 1539.86 120.934 1562.6 120.934C1584.52 120.934 1602.06 140.114 1602.06 164.226C1602.06 188.064 1584.25 207.244 1562.06 207.244C1539.59 207.244 1522.05 188.338 1522.05 163.678ZM1659.93 79.834H1693.08V49.42H1659.93V79.834ZM1659.93 233H1693.08V95.178H1659.93V233ZM1821.43 188.064C1813.76 200.668 1803.35 207.244 1791.02 207.244C1767.18 207.244 1749.65 188.886 1749.65 163.952C1749.65 139.018 1766.36 120.66 1789.65 120.66C1803.9 120.66 1813.21 126.414 1821.43 140.936H1858.7C1854.04 126.688 1849.38 119.29 1839.79 110.522C1826.09 97.644 1808.28 90.52 1789.65 90.52C1749.37 90.52 1716.49 123.4 1716.49 163.404C1716.49 204.23 1749.65 237.658 1789.92 237.658C1806.09 237.658 1823.63 231.63 1835.96 221.492C1846.92 212.724 1853.22 203.408 1858.7 188.064H1821.43ZM1963.2 132.716C1962.93 121.482 1960.19 114.632 1953.06 106.412C1944.57 96.274 1931.69 90.52 1918.27 90.52C1892.78 90.52 1872.23 109.7 1872.23 133.264C1872.23 145.32 1876.62 155.184 1884.84 162.582C1891.69 168.884 1894.98 170.528 1910.59 175.46C1928.95 181.488 1933.88 185.598 1933.88 193.544C1933.88 201.49 1927.58 207.518 1919.09 207.518C1909.5 207.518 1904.29 202.312 1901 189.708H1867.3C1868.67 203.408 1871.14 210.806 1876.62 218.204C1885.11 229.986 1901 237.658 1916.62 237.658C1944.3 237.658 1967.04 216.012 1967.04 189.434C1967.04 176.008 1961.83 165.596 1951.42 158.198C1945.39 153.814 1939.36 151.348 1919.36 145.32C1908.95 142.032 1905.11 138.744 1905.11 132.716C1905.11 125.866 1910.59 120.934 1917.99 120.934C1924.84 120.934 1929.5 125.044 1930.87 132.716H1963.2Z" fill="#00A295" fill-opacity="0.6"/>
</svg>
