<svg width="188" height="185" viewBox="0 0 188 185" fill="none" xmlns="http://www.w3.org/2000/svg">
<path d="M183.11 100.58C168.7 105.04 136.07 115.04 112.59 115.04C84.03 115.04 119.41 77.8899 97.43 77.8899C67.86 77.8899 16.14 108.71 4.21 115.43C1.6 116.9 0 119.66 0 122.65V145.25V184.06L27.2 145.25H174.92C181.96 145.25 187.66 139.55 187.66 132.51V103.93C187.66 101.57 185.37 99.8799 183.11 100.58Z" fill="#00A295"/>
<path d="M174.92 10.03H93.8298L24.9198 10.31C23.9198 4.48 18.8398 0 12.7398 0C5.91984 0 0.339844 5.58 0.339844 12.4V53.61C0.339844 53.65 0.349844 53.69 0.349844 53.74L0.339844 78.58C0.349844 81.63 3.63984 83.53 6.28984 82.02C24.8798 71.41 83.1298 39.98 121.02 39.98C150.5 39.98 105.01 78.02 134.62 78.02C152.24 78.02 174.46 71.84 183.52 67.71C186.04 66.56 187.65 64.05 187.65 61.29V22.77C187.66 15.74 181.95 10.03 174.92 10.03Z" fill="#00A295"/>
</svg>
